<svg xmlns="http://www.w3.org/2000/svg" width="128" height="128" viewBox="0 0 24 24"><g fill-rule="evenodd"><path d="M3.5 4a.5.5 0 0 1 .5-.5h16a.5.5 0 0 1 .5.5v16a.5.5 0 0 1-.5.5H4a.5.5 0 0 1-.5-.5V4Zm1 .5v15h15v-15h-15Z"/><path d="M6.5 7a.5.5 0 0 1 .5-.5h10a.5.5 0 0 1 .5.5v10a.5.5 0 0 1-.5.5H7a.5.5 0 0 1-.5-.5V7Zm1 .5v9h9v-9h-9ZM5 1.5a.5.5 0 0 1 .5.5v2a.5.5 0 0 1-1 0V2a.5.5 0 0 1 .5-.5Zm3.5 0A.5.5 0 0 1 9 2v2a.5.5 0 0 1-1 0V2a.5.5 0 0 1 .5-.5Zm3.5 0a.5.5 0 0 1 .5.5v2a.5.5 0 0 1-1 0V2a.5.5 0 0 1 .5-.5Zm3.5 0a.5.5 0 0 1 .5.5v2a.5.5 0 0 1-1 0V2a.5.5 0 0 1 .5-.5Zm3.5 0a.5.5 0 0 1 .5.5v2a.5.5 0 0 1-1 0V2a.5.5 0 0 1 .5-.5ZM19.5 19a.5.5 0 0 1 .5-.5h2a.5.5 0 0 1 0 1h-2a.5.5 0 0 1-.5-.5Zm0-3.5a.5.5 0 0 1 .5-.5h2a.5.5 0 0 1 0 1h-2a.5.5 0 0 1-.5-.5Zm0-3.5a.5.5 0 0 1 .5-.5h2a.5.5 0 0 1 0 1h-2a.5.5 0 0 1-.5-.5Zm0-3.5A.5.5 0 0 1 20 8h2a.5.5 0 0 1 0 1h-2a.5.5 0 0 1-.5-.5Zm0-3.5a.5.5 0 0 1 .5-.5h2a.5.5 0 0 1 0 1h-2a.5.5 0 0 1-.5-.5ZM5 19.5a.5.5 0 0 1 .5.5v2a.5.5 0 0 1-1 0v-2a.5.5 0 0 1 .5-.5Zm3.5 0a.5.5 0 0 1 .5.5v2a.5.5 0 0 1-1 0v-2a.5.5 0 0 1 .5-.5Zm3.5 0a.5.5 0 0 1 .5.5v2a.5.5 0 0 1-1 0v-2a.5.5 0 0 1 .5-.5Zm3.5 0a.5.5 0 0 1 .5.5v2a.5.5 0 0 1-1 0v-2a.5.5 0 0 1 .5-.5Zm3.5 0a.5.5 0 0 1 .5.5v2a.5.5 0 0 1-1 0v-2a.5.5 0 0 1 .5-.5ZM1.5 19a.5.5 0 0 1 .5-.5h2a.5.5 0 0 1 0 1H2a.5.5 0 0 1-.5-.5Zm0-3.5A.5.5 0 0 1 2 15h2a.5.5 0 0 1 0 1H2a.5.5 0 0 1-.5-.5Zm0-3.5a.5.5 0 0 1 .5-.5h2a.5.5 0 0 1 0 1H2a.5.5 0 0 1-.5-.5Zm0-3.5A.5.5 0 0 1 2 8h2a.5.5 0 0 1 0 1H2a.5.5 0 0 1-.5-.5Zm0-3.5a.5.5 0 0 1 .5-.5h2a.5.5 0 0 1 0 1H2a.5.5 0 0 1-.5-.5Z"/></g></svg>